<svg xmlns="http://www.w3.org/2000/svg" xmlns:xlink="http://www.w3.org/1999/xlink" id="Layer_1" x="0" y="0" enable-background="new 0 0 48 48" version="1.1" viewBox="0 0 48 48" xml:space="preserve"><g><path d="M19.8,35.4c-1.8,0-3.3,1.5-3.3,3.3c0,1.8,1.5,3.3,3.3,3.3s3.3-1.5,3.3-3.3C23.1,36.9,21.6,35.4,19.8,35.4z M19.8,40.3 c-0.9,0-1.6-0.7-1.6-1.6c0-0.9,0.7-1.6,1.6-1.6c0.9,0,1.6,0.7,1.6,1.6C21.5,39.5,20.7,40.3,19.8,40.3z"/><path d="M34.5,35.4c-1.8,0-3.3,1.5-3.3,3.3c0,1.8,1.5,3.3,3.3,3.3c1.8,0,3.3-1.5,3.3-3.3C37.7,36.9,36.3,35.4,34.5,35.4z M34.5,40.3c-0.9,0-1.6-0.7-1.6-1.6c0-0.9,0.7-1.6,1.6-1.6s1.6,0.7,1.6,1.6C36.1,39.5,35.4,40.3,34.5,40.3z"/><path d="M40.1,11.9c-0.5-0.6-1.1-0.9-1.9-0.9H14.8l-0.5-2.8c-0.2-1.2-1.1-2-2.4-2H6v1.6h5.9c0.4,0,0.7,0.3,0.8,0.7l3.7,23.3 c0.2,1.2,1.2,2,2.4,2h18.1v-1.6H18.9c-0.4,0-0.7-0.3-0.8-0.7l-0.4-2.5h18.6c1.2,0,2.2-0.8,2.4-2.1l2-13 C40.7,13.1,40.6,12.5,40.1,11.9z M26.3,20.8v6.5H23l-1-6.5H26.3z M21.8,19.1l-1-6.5h5.5v6.5H21.8z M28,20.8h4.3l-1,6.5H28V20.8z M28,19.1v-6.5h5.5l-1,6.5H28z M19.1,12.6l1,6.5h-4L15,12.6H19.1z M16.3,20.8h4l1,6.5h-3.9L16.3,20.8z M37.1,26.5 c-0.1,0.4-0.4,0.7-0.8,0.7H33l1-6.5h4L37.1,26.5z M39,13.6l-0.8,5.5h-4l1-6.5h3c0.2,0,0.5,0.1,0.7,0.3C38.9,13,39.1,13.3,39,13.6z"/></g></svg>