<?xml version="1.0" encoding="utf-8"?>
<!-- Generator: Adobe Illustrator 22.0.1, SVG Export Plug-In . SVG Version: 6.00 Build 0)  -->
<svg version="1.1" id="Layer_1" xmlns="http://www.w3.org/2000/svg" xmlns:xlink="http://www.w3.org/1999/xlink" x="0px" y="0px"
	 viewBox="0 0 50 50" style="enable-background:new 0 0 50 50;" xml:space="preserve">
<g id="Layer_1_1_">
	<path d="M36.2,8.9c0-2.5-2-4.5-4.5-4.5h-3c-1.6,0-3,0.8-3.8,2c-0.8-1.2-2.2-2-3.8-2h-3c-2.5,0-4.5,2-4.5,4.5c0,1.2,0.4,2.2,1.2,3
		h-8V21h1.5v19.7H21h1.5h4.5h1.5h12.9V21H43V12h-8C35.7,11.1,36.2,10.1,36.2,8.9z M28.6,5.9h3c1.7,0,3,1.4,3,3s-1.4,3-3,3h-3h-1.5
		h-1.5v-3C25.6,7.3,26.9,5.9,28.6,5.9z M15,8.9c0-1.7,1.4-3,3-3h3c1.7,0,3,1.4,3,3v3h-1.5H21h-3C16.3,12,15,10.6,15,8.9z M8.1,13.5
		H18h3v6.1H8.1V13.5z M21,39.2H9.7V21H21V39.2z M27.1,39.2h-4.5V21v-1.5v-6.1h1.5h1.5h1.5v6.1V21V39.2z M40,39.2H28.6V21H40V39.2z
		 M41.5,19.5H28.6v-6.1h3h9.9V19.5z"/>
</g>
</svg>
